0
SECTION
2
HEADER
9
$INSUNITS
70
4
9
$ACADVER
1
AC1014
9
$HANDSEED
5
FFFF
0
ENDSEC
0
SECTION
2
TABLES
0
TABLE
2
VPORT
5
8
100
AcDbSymbolTable
0
ENDTAB
0
TABLE
2
LTYPE
5
5
100
AcDbSymbolTable
0
LTYPE
5
14
100
AcDbSymbolTableRecord
100
AcDbLinetypeTableRecord
2
BYBLOCK
70
0
0
LTYPE
5
15
100
AcDbSymbolTableRecord
100
AcDbLinetypeTableRecord
2
BYLAYER
70
0
0
ENDTAB
0
TABLE
2
LAYER
5
2
100
AcDbSymbolTable
70
2
0
LAYER
5
50
100
AcDbSymbolTableRecord
100
AcDbLayerTableRecord
2
0
70
0
6
CONTINUOUS
0
ENDTAB
0
TABLE
2
STYLE
5
3
100
AcDbSymbolTable
70
1
0
STYLE
5
11
100
AcDbSymbolTableRecord
100
AcDbTextStyleTableRecord
2
STANDARD
70
0
0
ENDTAB
0
TABLE
2
VIEW
5
6
100
AcDbSymbolTable
70
0
0
ENDTAB
0
TABLE
2
UCS
5
7
100
AcDbSymbolTable
70
0
0
ENDTAB
0
TABLE
2
APPID
5
9
100
AcDbSymbolTable
70
2
0
APPID
5
12
100
AcDbSymbolTableRecord
100
AcDbRegAppTableRecord
2
ACAD
70
0
0
ENDTAB
0
TABLE
2
DIMSTYLE
5
A
100
AcDbSymbolTable
70
1
0
ENDTAB
0
TABLE
2
BLOCK_RECORD
5
1
100
AcDbSymbolTable
70
1
0
BLOCK_RECORD
5
1F
100
AcDbSymbolTableRecord
100
AcDbBlockTableRecord
2
*MODEL_SPACE
0
BLOCK_RECORD
5
1B
100
AcDbSymbolTableRecord
100
AcDbBlockTableRecord
2
*PAPER_SPACE
0
ENDTAB
0
ENDSEC
0
SECTION
2
BLOCKS
0
BLOCK
5
20
100
AcDbEntity
100
AcDbBlockBegin
2
*MODEL_SPACE
0
ENDBLK
5
21
100
AcDbEntity
100
AcDbBlockEnd
0
BLOCK
5
1C
100
AcDbEntity
100
AcDbBlockBegin
2
*PAPER_SPACE
0
ENDBLK
5
1D
100
AcDbEntity
100
AcDbBlockEnd
0
ENDSEC
0
SECTION
2
ENTITIES
0
LWPOLYLINE
5
100
100
AcDbEntity
8
0
100
AcDbPolyline
90
4
70
1
43
0.0
10
-89.999999999999986
20
299.99999999999994
10
810
20
300.00000000000011
10
810
20
-300
10
-89.999999999999986
20
-300
0
LWPOLYLINE
5
101
100
AcDbEntity
8
0
100
AcDbPolyline
90
16
70
1
43
0.0
10
182.31762745781211
20
7.1329238722136514
10
216.69456847032154
20
112.93426928485873
10
267.68237254218781
20
269.85859447355904
42
0.50952544949442891
10
277.49999999999989
20
276.9915183457727
10
442.49999999999989
20
276.99151834577282
42
0.50952544949442891
10
452.31762745781197
20
269.85859447355915
10
503.30543152967834
20
112.93426928485886
10
537.68237254218923
20
7.132923872213162
42
-1.3763819204709942
10
537.68237254218752
20
-7.1329238722147021
10
486.69456847032131
20
-164.05724906091496
10
452.31762745781225
20
-269.85859447355909
42
0.50952544949442846
10
442.50000000000011
20
-276.99151834577276
10
277.50000000000006
20
-276.99151834577287
42
0.50952544949442891
10
267.68237254218798
20
-269.85859447355921
10
233.30543152967837
20
-164.05724906091407
10
182.31762745781211
20
-7.1329238722136541
42
-1.3763819204711734
0
LINE
5
102
100
AcDbEntity
8
0
100
AcDbLine
10
229.5554315296784
20
175.59856232532115
30
0
11
96.067627457812137
21
272.58312895357926
31
0
0
LINE
5
103
100
AcDbEntity
8
0
100
AcDbLine
10
83.93237254218792
20
272.58312895357926
30
0
11
-49.55543152967838
21
175.59856232532124
31
0
0
LINE
5
104
100
AcDbEntity
8
0
100
AcDbLine
10
-53.30543152967838
20
164.05724906091405
30
0
11
-2.3176274578120948
21
7.1329238722136541
31
0
0
LINE
5
105
100
AcDbEntity
8
0
100
AcDbLine
10
-2.3176274578121046
20
-7.1329238722136514
30
0
11
-53.305431529678408
21
-164.05724906091396
31
0
0
LINE
5
106
100
AcDbEntity
8
0
100
AcDbLine
10
-49.555431529678408
20
-175.59856232532115
30
0
11
83.932372542187863
21
-272.58312895357926
31
0
0
LINE
5
107
100
AcDbEntity
8
0
100
AcDbLine
10
96.06762745781208
20
-272.58312895357926
30
0
11
229.55543152967837
21
-175.59856232532127
31
0
0
LINE
5
108
100
AcDbEntity
8
0
100
AcDbLine
10
172.5
20
0
30
0
11
7.5
21
0
31
0
0
LINE
5
109
100
AcDbEntity
8
0
100
AcDbLine
10
366.06762745781214
20
4.4083893921935449
30
0
11
499.55543152967834
21
101.39295602045169
31
0
0
LINE
5
110
100
AcDbEntity
8
0
100
AcDbLine
10
220.44456847032154
20
101.39295602045154
30
0
11
353.93237254218786
21
4.4083893921935537
31
0
0
LINE
5
111
100
AcDbEntity
8
0
100
AcDbLine
10
499.5554315296784
20
-101.39295602045154
30
0
11
366.06762745781214
21
-4.4083893921935804
31
0
0
LINE
5
112
100
AcDbEntity
8
0
100
AcDbLine
10
353.93237254218786
20
-4.4083893921935244
30
0
11
220.44456847032151
21
-101.39295602045168
31
0
0
LINE
5
113
100
AcDbEntity
8
0
100
AcDbLine
10
722.31762745781316
20
7.1329238722121788
30
0
11
773.30543152967903
21
164.05724906091436
31
0
0
LINE
5
114
100
AcDbEntity
8
0
100
AcDbLine
10
769.55543152967903
20
175.59856232532144
30
0
11
636.06762745781214
21
272.58312895357892
31
0
0
LINE
5
115
100
AcDbEntity
8
0
100
AcDbLine
10
623.93237254218798
20
272.58312895357881
30
0
11
490.44456847032217
21
175.59856232531999
31
0
0
LINE
5
116
100
AcDbEntity
8
0
100
AcDbLine
10
490.44456847032131
20
-175.59856232532215
30
0
11
623.93237254218752
21
-272.58312895358006
31
0
0
LINE
5
117
100
AcDbEntity
8
0
100
AcDbLine
10
636.0676274578118
20
-272.58312895358006
30
0
11
769.55543152967778
21
-175.59856232532201
31
0
0
LINE
5
118
100
AcDbEntity
8
0
100
AcDbLine
10
773.30543152967778
20
-164.05724906091481
30
0
11
722.31762745781168
21
-7.1329238722146506
31
0
0
LINE
5
119
100
AcDbEntity
8
0
100
AcDbLine
10
712.49999999999955
20
-9.9975583367495346e-13
30
0
11
547.49999999999955
21
-1.0566547636869927e-12
31
0
0
ARC
5
120
100
AcDbEntity
8
0
100
AcDbCircle
10
484.37694101251003
20
171.19017293312641
30
0
40
7.5000000000000036
210
0
220
0
230
1
100
AcDbArc
50
-72.000000000001634
51
36.000000000000078
0
ARC
5
121
100
AcDbEntity
8
0
100
AcDbCircle
10
630.00000000000011
20
276.99151834577242
30
0
40
7.5000000000000187
210
0
220
0
230
1
100
AcDbArc
50
216.00000000000026
51
323.99999999999994
0
ARC
5
122
100
AcDbEntity
8
0
100
AcDbCircle
10
775.62305898749116
20
171.19017293312797
30
0
40
7.4999999999999565
210
0
220
0
230
1
100
AcDbArc
50
144.00000000000063
51
251.99999999999969
0
ARC
5
123
100
AcDbEntity
8
0
100
AcDbCircle
10
719.99999999999955
20
-9.9698027611339057e-13
30
0
40
7.4999999999999876
210
0
220
-0
230
1
100
AcDbArc
50
71.999999999987907
51
288.00000000000023
0
ARC
5
124
100
AcDbEntity
8
0
100
AcDbCircle
10
775.62305898748991
20
-171.19017293312848
30
0
40
7.5000000000000009
210
0
220
0
230
1
100
AcDbArc
50
108.0000000000002
51
215.99999999999974
0
ARC
5
125
100
AcDbEntity
8
0
100
AcDbCircle
10
629.99999999999966
20
-276.99151834577361
30
0
40
7.4999999999999982
210
0
220
-0
230
1
100
AcDbArc
50
35.999999999999893
51
144.00000000000011
0
ARC
5
126
100
AcDbEntity
8
0
100
AcDbCircle
10
89.999999999999972
20
-276.99151834577276
30
0
40
7.4999999999999982
210
0
220
-0
230
1
100
AcDbArc
50
35.999999999999673
51
144.00000000000031
0
ARC
5
127
100
AcDbEntity
8
0
100
AcDbCircle
10
-55.623058987490523
20
-171.19017293312763
30
0
40
7.5000000000000053
210
0
220
0
230
1
100
AcDbArc
50
-35.999999999999794
51
71.999999999999957
0
ARC
5
128
100
AcDbEntity
8
0
100
AcDbCircle
10
0
20
0
30
0
40
7.4999999999999991
210
0
220
0
230
1
100
AcDbArc
50
-108
51
107.99999999999993
0
ARC
5
129
100
AcDbEntity
8
0
100
AcDbCircle
10
-55.623058987490488
20
171.19017293312768
30
0
40
7.5000000000000009
210
0
220
0
230
1
100
AcDbArc
50
-71.999999999999943
51
36.000000000000028
0
ARC
5
130
100
AcDbEntity
8
0
100
AcDbCircle
10
90.000000000000028
20
276.99151834577276
30
0
40
7.4999999999999982
210
0
220
0
230
1
100
AcDbArc
50
215.99999999999966
51
324.00000000000028
0
ARC
5
131
100
AcDbEntity
8
0
100
AcDbCircle
10
235.62305898749054
20
171.19017293312763
30
0
40
7.4999999999999982
210
0
220
0
230
1
100
AcDbArc
50
144.00000000000028
51
251.9999999999998
0
ARC
5
132
100
AcDbEntity
8
0
100
AcDbCircle
10
214.37694101250943
20
105.80134541264508
30
0
40
7.4999999999999982
210
0
220
0
230
1
100
AcDbArc
50
-35.99999999999995
51
71.999999999999986
0
ARC
5
133
100
AcDbEntity
8
0
100
AcDbCircle
10
214.37694101250941
20
-105.80134541264525
30
0
40
7.5000000000000124
210
0
220
0
230
1
100
AcDbArc
50
-71.999999999999744
51
36.000000000000121
0
ARC
5
134
100
AcDbEntity
8
0
100
AcDbCircle
10
235.62305898749048
20
-171.19017293312768
30
0
40
7.499999999999968
210
0
220
0
230
1
100
AcDbArc
50
108.00000000000013
51
216.0000000000002
0
ARC
5
135
100
AcDbEntity
8
0
100
AcDbCircle
10
505.62305898749048
20
105.80134541264525
30
0
40
7.499999999999968
210
0
220
0
230
1
100
AcDbArc
50
108.00000000000034
51
215.99999999999989
0
ARC
5
136
100
AcDbEntity
8
0
100
AcDbCircle
10
360
20
0
30
0
40
7.4999999999999876
210
0
220
0
230
1
100
AcDbArc
50
215.99999999999969
51
323.99999999999994
0
ARC
5
137
100
AcDbEntity
8
0
100
AcDbCircle
10
360
20
0
30
0
40
7.5
210
0
220
-0
230
1
100
AcDbArc
50
35.999999999999829
51
144.00000000000011
0
ARC
5
138
100
AcDbEntity
8
0
100
AcDbCircle
10
505.62305898749054
20
-105.80134541264508
30
0
40
7.4999999999999982
210
0
220
0
230
1
100
AcDbArc
50
144.0000000000002
51
251.9999999999998
0
ARC
5
139
100
AcDbEntity
8
0
100
AcDbCircle
10
484.37694101250918
20
-171.19017293312862
30
0
40
7.4999999999999982
210
0
220
0
230
1
100
AcDbArc
50
-35.999999999999744
51
71.999999999999815
0
ENDSEC
0
SECTION
2
OBJECTS
0
DICTIONARY
5
C
100
AcDbDictionary
3
ACAD_GROUP
350
D
3
ACAD_MLINESTYLE
350
17
0
DICTIONARY
5
D
100
AcDbDictionary
0
DICTIONARY
5
1A
330
C
100
AcDbDictionary
0
DICTIONARY
5
17
100
AcDbDictionary
0
ENDSEC
0
EOF
