0
SECTION
2
HEADER
9
$INSUNITS
70
4
9
$ACADVER
1
AC1014
9
$HANDSEED
5
FFFF
0
ENDSEC
0
SECTION
2
TABLES
0
TABLE
2
VPORT
5
8
100
AcDbSymbolTable
0
ENDTAB
0
TABLE
2
LTYPE
5
5
100
AcDbSymbolTable
0
LTYPE
5
14
100
AcDbSymbolTableRecord
100
AcDbLinetypeTableRecord
2
BYBLOCK
70
0
0
LTYPE
5
15
100
AcDbSymbolTableRecord
100
AcDbLinetypeTableRecord
2
BYLAYER
70
0
0
ENDTAB
0
TABLE
2
LAYER
5
2
100
AcDbSymbolTable
70
2
0
LAYER
5
50
100
AcDbSymbolTableRecord
100
AcDbLayerTableRecord
2
0
70
0
6
CONTINUOUS
0
ENDTAB
0
TABLE
2
STYLE
5
3
100
AcDbSymbolTable
70
1
0
STYLE
5
11
100
AcDbSymbolTableRecord
100
AcDbTextStyleTableRecord
2
STANDARD
70
0
0
ENDTAB
0
TABLE
2
VIEW
5
6
100
AcDbSymbolTable
70
0
0
ENDTAB
0
TABLE
2
UCS
5
7
100
AcDbSymbolTable
70
0
0
ENDTAB
0
TABLE
2
APPID
5
9
100
AcDbSymbolTable
70
2
0
APPID
5
12
100
AcDbSymbolTableRecord
100
AcDbRegAppTableRecord
2
ACAD
70
0
0
ENDTAB
0
TABLE
2
DIMSTYLE
5
A
100
AcDbSymbolTable
70
1
0
ENDTAB
0
TABLE
2
BLOCK_RECORD
5
1
100
AcDbSymbolTable
70
1
0
BLOCK_RECORD
5
1F
100
AcDbSymbolTableRecord
100
AcDbBlockTableRecord
2
*MODEL_SPACE
0
BLOCK_RECORD
5
1B
100
AcDbSymbolTableRecord
100
AcDbBlockTableRecord
2
*PAPER_SPACE
0
ENDTAB
0
ENDSEC
0
SECTION
2
BLOCKS
0
BLOCK
5
20
100
AcDbEntity
100
AcDbBlockBegin
2
*MODEL_SPACE
0
ENDBLK
5
21
100
AcDbEntity
100
AcDbBlockEnd
0
BLOCK
5
1C
100
AcDbEntity
100
AcDbBlockBegin
2
*PAPER_SPACE
0
ENDBLK
5
1D
100
AcDbEntity
100
AcDbBlockEnd
0
ENDSEC
0
SECTION
2
ENTITIES
0
LWPOLYLINE
5
100
100
AcDbEntity
8
0
100
AcDbPolyline
90
10
70
1
43
0.0
10
-248.08590429667385
20
118.48411500397054
10
-197.09810022480767
20
275.40844019267047
42
-0.50952544949442846
10
-200.84810022480767
20
286.94975345707763
10
-334.33590429667368
20
383.93432008533551
42
-0.50952544949442946
10
-346.47115921229789
20
383.93432008533551
10
-479.95896328416381
20
286.94975345707769
42
-0.50952544949442846
10
-483.70896328416381
20
275.40844019267053
10
-432.72115921229761
20
118.48411500397054
42
-0.50952544949442913
10
-422.90353175448553
20
111.35119113175689
10
-257.90353175448593
20
111.35119113175689
42
-0.50952544949442891
0
LWPOLYLINE
5
101
100
AcDbEntity
8
0
100
AcDbPolyline
90
5
70
1
43
0.0
10
-340.40353175448581
20
375.98202970253112
10
-474.27088569612647
20
278.72170395238305
10
-423.13810647443188
20
121.35119113175688
10
-257.66895703453952
20
121.35119113175689
10
-206.53617781284504
20
278.72170395238305
0
LWPOLYLINE
5
102
100
AcDbEntity
8
0
100
AcDbPolyline
90
5
70
1
43
0.0
10
308.8164189617496
20
121.35119113175689
10
359.94919818344391
20
278.72170395238254
10
226.08184424180362
20
375.98202970253033
10
92.214490300163362
20
278.72170395238265
10
143.34726952185778
20
121.35119113175688
0
LWPOLYLINE
5
103
100
AcDbEntity
8
0
100
AcDbPolyline
90
10
70
1
43
0.0
10
365.63727577148131
20
286.94975345707718
10
232.14947169961567
20
383.93432008533472
42
-0.50952544949442946
10
220.01421678399146
20
383.93432008533472
10
86.526412712126003
20
286.94975345707724
42
-0.50952544949442846
10
82.776412712126003
20
275.40844019267007
10
133.76421678399203
20
118.48411500397054
42
-0.50952544949442891
10
143.58184424180416
20
111.35119113175689
10
308.58184424180359
20
111.35119113175689
42
-0.50952544949442757
10
318.39947169961522
20
118.4841150039702
10
369.38727577148131
20
275.40844019267001
42
-0.50952544949442846
0
LWPOLYLINE
5
104
100
AcDbEntity
8
0
100
AcDbPolyline
90
5
70
1
43
0.0
10
75.94498315815153
20
220.97219665690258
10
24.81220393645696
20
378.34270947752827
10
-140.6569455034348
20
378.34270947752816
10
-191.78972472512908
20
220.97219665690238
10
-57.922370783488702
20
123.71187090675478
0
LWPOLYLINE
5
105
100
AcDbEntity
8
0
100
AcDbPolyline
90
10
70
1
43
0.0
10
85.383060746188903
20
224.28546041661522
10
34.395256674322653
20
381.20978560531449
42
-0.50952544949442913
10
24.577629216510562
20
388.34270947752816
10
-140.42237078348842
20
388.34270947752782
42
-0.50952544949442824
10
-150.2399982413005
20
381.20978560531421
10
-201.22780231316625
20
224.2854604166148
42
-0.50952544949442846
10
-197.47780231316625
20
212.7441471522076
10
-63.989998241300547
20
115.75958052395031
42
-0.50952544949442924
10
-51.854743325676509
20
115.75958052395032
10
81.633060746188946
20
212.744147152208
42
-0.50952544949443002
0
LWPOLYLINE
5
106
100
AcDbEntity
8
0
100
AcDbPolyline
90
5
70
1
43
0.0
10
317.33104296546048
20
96.351191131756963
10
151.86189352556809
20
96.35119113175692
10
100.72911430387364
20
-61.019321688869255
10
234.59646824551442
20
-158.27964743901728
10
368.46382218715507
20
-61.019321688869219
0
LWPOLYLINE
5
107
100
AcDbEntity
8
0
100
AcDbPolyline
90
10
70
1
43
0.0
10
-188.58347622109747
20
-57.70605792915628
10
-239.57128029296342
20
99.218267259543211
42
-0.50952544949442913
10
-249.38890775077553
20
106.35119113175688
10
-414.38890775077584
20
106.35119113175685
42
-0.50952544949442813
10
-424.20653520858644
20
99.218267259544234
10
-475.19433928045271
20
-57.706057929156245
42
-0.50952544949442846
10
-471.44433928045271
20
-69.247371193563438
10
-337.95653520858707
20
-166.23193782182096
42
-0.50952544949442946
10
-325.82128029296285
20
-166.23193782182096
10
-192.33347622109747
20
-69.247371193563481
42
-0.50952544949442868
0
LWPOLYLINE
5
108
100
AcDbEntity
8
0
100
AcDbPolyline
90
10
70
1
43
0.0
10
95.041036715836213
20
-69.247371193563822
10
228.52884078770231
20
-166.23193782182167
42
-0.50952544949442824
10
240.66409570332652
20
-166.23193782182167
10
374.15189977519231
20
-69.247371193563879
42
-0.50952544949442935
10
377.90189977519231
20
-57.706057929156671
10
326.91409570332615
20
99.218267259543353
42
-0.50952544949442913
10
317.09646824551413
20
106.35119113175693
10
152.0964682455143
20
106.35119113175692
42
-0.50952544949442857
10
142.27884078770245
20
99.218267259543467
10
91.291036715836213
20
-57.706057929156636
42
-0.50952544949442846
0
LWPOLYLINE
5
109
100
AcDbEntity
8
0
100
AcDbPolyline
90
5
70
1
43
0.0
10
34.849881994463416
20
-160.64032721401435
10
85.982661216157652
20
-3.2698143933885859
10
-47.884692725482694
20
93.990511356758986
10
-181.7520466671229
20
-3.2698143933887991
10
-130.61926744542831
20
-160.64032721401449
0
LWPOLYLINE
5
110
100
AcDbEntity
8
0
100
AcDbPolyline
90
5
70
1
43
0.0
10
-198.02155380913476
20
-61.019321688868864
10
-249.15433303082921
20
96.351191131756892
10
-414.623482470721
20
96.351191131756849
10
-465.75626169241531
20
-61.019321688868828
10
-331.8889077507751
20
-158.27964743901657
0
LWPOLYLINE
5
111
100
AcDbEntity
8
0
100
AcDbPolyline
90
10
70
1
43
0.0
10
-191.19012425516033
20
-6.5830781531014573
10
-140.20232018329409
20
-163.50740334180071
42
-0.50952544949442891
10
-130.38469272548198
20
-170.64032721401435
10
34.615307274517029
20
-170.64032721401406
42
-0.50952544949442824
10
44.432934732329116
20
-163.50740334180043
10
95.420738804194812
20
-6.5830781531009936
42
-0.50952544949442913
10
91.670738804194798
20
4.9582351113061991
10
-41.817065267670721
20
101.94280173956335
42
-0.50952544949442902
10
-53.952320183295093
20
101.94280173956332
10
-187.44012425516033
20
4.9582351113057674
42
-0.50952544949442968
0
ENDSEC
0
SECTION
2
OBJECTS
0
DICTIONARY
5
C
100
AcDbDictionary
3
ACAD_GROUP
350
D
3
ACAD_MLINESTYLE
350
17
0
DICTIONARY
5
D
100
AcDbDictionary
0
DICTIONARY
5
1A
330
C
100
AcDbDictionary
0
DICTIONARY
5
17
100
AcDbDictionary
0
ENDSEC
0
EOF
